<svg width="100" height="109" viewBox="0 0 100 109" fill="none" xmlns="http://www.w3.org/2000/svg">
<g clip-path="url(#clip0_22_456)">
<path d="M41.2833 48.3553C46.0257 45.7825 49.828 41.5335 52.0697 36.302C54.3114 31.0704 54.8601 25.1651 53.6263 19.5498C52.3925 13.9345 49.449 8.9409 45.2762 5.38386C41.1034 1.82683 35.9477 -0.0835489 30.6506 -0.0354919C25.3535 0.012565 20.2277 2.01622 16.1098 5.64847C11.9919 9.28072 9.12507 14.3271 7.97717 19.9639C6.82927 25.6008 7.46809 31.4954 9.78937 36.6855C12.1107 41.8757 15.9773 46.0551 20.7583 48.5415C14.6904 50.8989 9.43905 55.2427 5.72314 60.9784C2.00723 66.7141 0.00831454 73.5613 0 80.583C0 81.1852 0.219493 81.7628 0.610194 82.1887C1.0009 82.6145 1.5308 82.8538 2.08333 82.8538H37.5C38.0525 82.8538 38.5824 82.6145 38.9731 82.1887C39.3638 81.7628 39.5833 81.1852 39.5833 80.583V66.958C39.5833 64.5489 40.4613 62.2385 42.0241 60.5351C43.5869 58.8316 45.7065 57.8746 47.9167 57.8746H51.9042C52.1125 57.8751 52.3162 57.8075 52.489 57.6805C52.6617 57.5535 52.7955 57.3729 52.8732 57.1622C52.9508 56.9514 52.9686 56.7201 52.9244 56.4981C52.8801 56.2762 52.7759 56.0738 52.625 55.9172C49.3904 52.5325 45.521 49.9526 41.2833 48.3553ZM34.375 68.6611C34.375 69.5645 34.0458 70.4309 33.4597 71.0697C32.8737 71.7085 32.0788 72.0673 31.25 72.0673C30.4212 72.0673 29.6263 71.7085 29.0403 71.0697C28.4542 70.4309 28.125 69.5645 28.125 68.6611V61.1446C28.125 60.2412 28.4542 59.3748 29.0403 58.736C29.6263 58.0972 30.4212 57.7384 31.25 57.7384C32.0788 57.7384 32.8737 58.0972 33.4597 58.736C34.0458 59.3748 34.375 60.2412 34.375 61.1446V68.6611ZM30.8333 41.9788C26.8343 41.9704 23.0014 40.2341 20.1749 37.1506C17.3483 34.0671 15.7586 29.8878 15.7542 25.5289C15.7704 22.9079 16.3694 20.3302 17.5 18.017C23.1204 22.8818 30.0855 25.5309 37.2625 25.5334C40.1604 25.5241 43.0437 25.0856 45.8333 24.23C45.8667 24.6841 45.9542 25.0838 45.9542 25.5289C45.9497 29.8957 44.3543 34.0818 41.5187 37.1666C38.6831 40.2515 34.8396 41.9824 30.8333 41.9788Z" fill="#FF993A"/>
<path d="M100 70.3958C100 68.589 99.3415 66.8563 98.1694 65.5787C96.9973 64.3011 95.4076 63.5833 93.75 63.5833H86.4583C85.9058 63.5833 85.3759 63.3441 84.9852 62.9182C84.5945 62.4924 84.375 61.9148 84.375 61.3125V59.0417C84.3728 56.9345 83.6038 54.9143 82.2369 53.4243C80.8699 51.9343 79.0165 51.0962 77.0833 51.0938H68.75C66.8168 51.0962 64.9634 51.9343 63.5964 53.4243C62.2295 54.9143 61.4605 56.9345 61.4583 59.0417V61.3125C61.4583 61.9148 61.2388 62.4924 60.8481 62.9182C60.4574 63.3441 59.9275 63.5833 59.375 63.5833H52.0833C50.4257 63.5833 48.836 64.3011 47.6639 65.5787C46.4918 66.8563 45.8333 68.589 45.8333 70.3958V102.188C45.8333 103.994 46.4918 105.727 47.6639 107.005C48.836 108.282 50.4257 109 52.0833 109H93.75C95.4076 109 96.9973 108.282 98.1694 107.005C99.3415 105.727 100 103.994 100 102.188V70.3958ZM67.7083 59.0417C67.7094 58.7409 67.8195 58.4528 68.0146 58.2401C68.2097 58.0275 68.4741 57.9074 68.75 57.9062H77.0833C77.3592 57.9074 77.6236 58.0275 77.8187 58.2401C78.0138 58.4528 78.1239 58.7409 78.125 59.0417V61.3125C78.125 61.9148 77.9055 62.4924 77.5148 62.9182C77.1241 63.3441 76.5942 63.5833 76.0416 63.5833H69.7916C69.2391 63.5833 68.7092 63.3441 68.3185 62.9182C67.9278 62.4924 67.7083 61.9148 67.7083 61.3125V59.0417ZM83.3333 89.6979C83.3333 89.999 83.2236 90.2878 83.0282 90.5008C82.8329 90.7137 82.5679 90.8333 82.2916 90.8333H79.1666C78.6141 90.8333 78.0842 91.0726 77.6935 91.4984C77.3028 91.9243 77.0833 92.5019 77.0833 93.1042V96.5104C77.0833 96.8115 76.9736 97.1003 76.7782 97.3133C76.5829 97.5262 76.3179 97.6458 76.0416 97.6458H69.7916C69.5154 97.6458 69.2504 97.5262 69.0551 97.3133C68.8597 97.1003 68.75 96.8115 68.75 96.5104V93.1042C68.75 92.5019 68.5305 91.9243 68.1398 91.4984C67.7491 91.0726 67.2192 90.8333 66.6666 90.8333H63.5416C63.2654 90.8333 63.0004 90.7137 62.8051 90.5008C62.6097 90.2878 62.5 89.999 62.5 89.6979V82.8854C62.5 82.5843 62.6097 82.2955 62.8051 82.0826C63.0004 81.8696 63.2654 81.75 63.5416 81.75H66.6666C67.2192 81.75 67.7491 81.5108 68.1398 81.0849C68.5305 80.659 68.75 80.0814 68.75 79.4792V76.0729C68.75 75.7718 68.8597 75.483 69.0551 75.2701C69.2504 75.0571 69.5154 74.9375 69.7916 74.9375H76.0416C76.3179 74.9375 76.5829 75.0571 76.7782 75.2701C76.9736 75.483 77.0833 75.7718 77.0833 76.0729V79.4792C77.0833 80.0814 77.3028 80.659 77.6935 81.0849C78.0842 81.5108 78.6141 81.75 79.1666 81.75H82.2916C82.5679 81.75 82.8329 81.8696 83.0282 82.0826C83.2236 82.2955 83.3333 82.5843 83.3333 82.8854V89.6979Z" fill="#FF993A"/>
</g>
<defs>
<clipPath id="clip0_22_456">
<rect width="100" height="109" fill="white"/>
</clipPath>
</defs>
</svg>
