<svg width="18" height="12" viewBox="0 0 18 12" fill="none" xmlns="http://www.w3.org/2000/svg">
<path d="M17.5527 11.1913C17.5621 11.1624 17.5685 11.1319 17.5685 11.0998V0.5117C17.5685 0.479414 17.5621 0.448722 17.5525 0.419624C17.5511 0.415638 17.5503 0.411652 17.5487 0.407666C17.536 0.373586 17.5172 0.342894 17.4937 0.315989C17.4921 0.314195 17.4919 0.312003 17.4903 0.310209C17.4893 0.309213 17.4881 0.308814 17.4872 0.307818C17.462 0.281112 17.4323 0.259587 17.3991 0.243444C17.3965 0.242249 17.3945 0.240654 17.3919 0.239458C17.3604 0.225308 17.3261 0.217336 17.29 0.214945C17.2865 0.214745 17.2831 0.213948 17.2795 0.213948C17.2761 0.213749 17.2731 0.212952 17.2697 0.212952H0.687086C0.683698 0.212952 0.68051 0.213749 0.677121 0.213948C0.673933 0.214147 0.670744 0.214745 0.667555 0.214945C0.631083 0.217336 0.596206 0.225508 0.564319 0.239857C0.562326 0.240654 0.560731 0.242049 0.558738 0.242846C0.524857 0.25899 0.494763 0.280912 0.469453 0.308017C0.468456 0.309013 0.46726 0.309213 0.466264 0.310209C0.464669 0.311804 0.46447 0.313996 0.462876 0.31579C0.439358 0.342695 0.420425 0.373586 0.40767 0.407666C0.406076 0.411652 0.405278 0.415638 0.403883 0.419824C0.394317 0.448921 0.387939 0.479613 0.387939 0.511899V11.1002C0.387939 11.1329 0.394516 11.164 0.404282 11.1935C0.405677 11.1975 0.406474 11.2013 0.407869 11.2053C0.420824 11.2395 0.439956 11.2704 0.463673 11.2973C0.465068 11.2989 0.465467 11.3009 0.466862 11.3025C0.468057 11.3039 0.469652 11.3047 0.471047 11.3061C0.480813 11.3163 0.491575 11.3252 0.502735 11.334C0.507718 11.3378 0.512102 11.3424 0.517284 11.346C0.530438 11.3551 0.544588 11.3625 0.559137 11.3693C0.562724 11.3709 0.565913 11.3735 0.5695 11.3749C0.605573 11.3902 0.645234 11.399 0.686887 11.399H17.2693C17.311 11.399 17.3506 11.3904 17.3867 11.3749C17.3923 11.3725 17.3975 11.3689 17.4028 11.3661C17.4152 11.3599 17.4276 11.3535 17.4389 11.3458C17.4449 11.3416 17.4503 11.3362 17.4561 11.3316C17.4662 11.3234 17.4762 11.3153 17.485 11.3059C17.4866 11.3043 17.4883 11.3031 17.4899 11.3015C17.4915 11.2997 17.4919 11.2973 17.4935 11.2955C17.5168 11.2688 17.5356 11.2381 17.5483 11.2043C17.5503 11.1999 17.5513 11.1957 17.5527 11.1913ZM0.986034 1.18971L6.01772 5.78574L0.986034 10.4184V1.18971ZM11.2989 5.56053C11.2782 5.57408 11.2563 5.58544 11.2389 5.60457C11.2324 5.61175 11.2302 5.62112 11.2244 5.62869L8.9783 7.68027L1.45757 0.810648H16.499L11.2989 5.56053ZM6.46096 6.19051L8.77661 8.30567C8.83381 8.35788 8.90596 8.38399 8.9783 8.38399C9.05065 8.38399 9.12279 8.35788 9.17979 8.30567L11.4667 6.21682L16.4976 10.8011H1.45319L6.46096 6.19051ZM11.9102 5.81184L16.9706 1.18971V10.4232L11.9102 5.81184Z" fill="#FF993A"/>
</svg>
