<svg width="25" height="26" viewBox="0 0 25 26" fill="none" xmlns="http://www.w3.org/2000/svg">
<path d="M22.449 0.220215H2.55102C1.14214 0.220215 0 1.37609 0 2.80192V22.9392C0 24.365 1.14214 25.5209 2.55102 25.5209H22.449C23.8579 25.5209 25 24.365 25 22.9392V2.80192C25 1.37609 23.8579 0.220215 22.449 0.220215ZM7.75235 20.7038H4.39566V9.7752H7.75235V20.7038ZM6.05189 8.43426C4.99189 8.43426 4.30735 7.67446 4.30735 6.73576C4.30735 5.7748 5.01403 5.03721 6.09607 5.03721C7.17811 5.03721 7.84066 5.77475 7.8627 6.73576C7.8627 7.67446 7.17811 8.43426 6.05189 8.43426ZM20.6927 20.7038H17.336V14.6473C17.336 13.2393 16.8502 12.2783 15.6357 12.2783C14.7081 12.2783 14.156 12.9264 13.9131 13.5522C13.8247 13.7756 13.8027 14.0885 13.8027 14.4014V20.7038H10.446V13.2616C10.446 11.8983 10.4019 10.7585 10.3577 9.7752H13.2727L13.4272 11.295H13.4936C13.9352 10.5798 15.0172 9.52942 16.8281 9.52942C19.0364 9.52942 20.6927 11.0268 20.6927 14.245V20.7038Z" fill="white"/>
</svg>
