<svg width="30" height="30" viewBox="0 0 30 30" fill="none" xmlns="http://www.w3.org/2000/svg">
<path d="M26.9388 0H3.06122C1.37057 0 0 1.37057 0 3.06122V26.9388C0 28.6294 1.37057 30 3.06122 30H26.9388C28.6294 30 30 28.6294 30 26.9388V3.06122C30 1.37057 28.6294 0 26.9388 0ZM9.30282 24.2882H5.2748V11.3297H9.30282V24.2882ZM7.26227 9.73971C5.99027 9.73971 5.16882 8.8388 5.16882 7.72573C5.16882 6.58629 6.01684 5.71169 7.31529 5.71169C8.61374 5.71169 9.4088 6.58622 9.43524 7.72573C9.43524 8.8388 8.61374 9.73971 7.26227 9.73971ZM24.8312 24.2882H20.8032V17.1067C20.8032 15.4372 20.2202 14.2977 18.7628 14.2977C17.6497 14.2977 16.9872 15.0662 16.6957 15.8082C16.5897 16.0732 16.5632 16.4442 16.5632 16.8152V24.2882H12.5352V15.4637C12.5352 13.8472 12.4823 12.4957 12.4292 11.3297H15.9272L16.1127 13.1318H16.1923C16.7222 12.2838 18.0207 11.0383 20.1937 11.0383C22.8437 11.0383 24.8312 12.8138 24.8312 16.6297V24.2882Z" fill="#FF993A"/>
</svg>
