<svg width="30" height="31" viewBox="0 0 30 31" fill="none" xmlns="http://www.w3.org/2000/svg">
<path d="M27.5806 3.27409C26.0081 1.64102 23.7702 0.79425 21.2298 0.79425H8.77016C3.50806 0.79425 0 4.30231 0 9.56441V21.9636C0 24.5644 0.846774 26.8023 2.54032 28.4354C4.17339 30.008 6.35081 30.7943 8.83065 30.7943H21.1694C23.7702 30.7943 25.9476 29.9475 27.5202 28.4354C29.1532 26.8628 30 24.6249 30 22.0241V9.56441C30 7.02409 29.1532 4.84667 27.5806 3.27409ZM27.3387 22.0241C27.3387 23.8991 26.6734 25.4112 25.5847 26.4394C24.496 27.4676 22.9839 28.012 21.1694 28.012H8.83065C7.01613 28.012 5.50403 27.4676 4.41532 26.4394C3.32661 25.3507 2.78226 23.8386 2.78226 21.9636V9.56441C2.78226 7.74989 3.32661 6.2378 4.41532 5.14909C5.44355 4.12086 7.01613 3.57651 8.83065 3.57651H21.2903C23.1048 3.57651 24.6169 4.12086 25.7056 5.20957C26.7339 6.29828 27.3387 7.81038 27.3387 9.56441V22.0241Z" fill="#FF993A"/>
</svg>
