<svg width="30" height="31" viewBox="0 0 30 31" fill="none" xmlns="http://www.w3.org/2000/svg">
<path d="M15 7.99182C10.7661 7.99182 7.25806 11.4394 7.25806 15.7338C7.25806 20.0281 10.7056 23.4757 15 23.4757C19.2943 23.4757 22.7419 19.9676 22.7419 15.7338C22.7419 11.4999 19.2339 7.99182 15 7.99182ZM15 20.6934C12.2782 20.6934 10.0403 18.4555 10.0403 15.7338C10.0403 13.012 12.2782 10.7741 15 10.7741C17.7218 10.7741 19.9597 13.012 19.9597 15.7338C19.9597 18.4555 17.7218 20.6934 15 20.6934Z" fill="#FF993A"/>
<path d="M23.0443 9.56434C24.013 9.56434 24.7983 8.77903 24.7983 7.81031C24.7983 6.84158 24.013 6.05627 23.0443 6.05627C22.0756 6.05627 21.2903 6.84158 21.2903 7.81031C21.2903 8.77903 22.0756 9.56434 23.0443 9.56434Z" fill="#FF993A"/>
<path d="M27.5806 3.27409C26.0081 1.64102 23.7702 0.79425 21.2298 0.79425H8.77016C3.50806 0.79425 0 4.30231 0 9.56441V21.9636C0 24.5644 0.846774 26.8023 2.54032 28.4354C4.17339 30.008 6.35081 30.7943 8.83065 30.7943H21.1694C23.7702 30.7943 25.9476 29.9475 27.5202 28.4354C29.1532 26.8628 30 24.6249 30 22.0241V9.56441C30 7.02409 29.1532 4.84667 27.5806 3.27409ZM27.3387 22.0241C27.3387 23.8991 26.6734 25.4112 25.5847 26.4394C24.496 27.4676 22.9839 28.012 21.1694 28.012H8.83065C7.01613 28.012 5.50403 27.4676 4.41532 26.4394C3.32661 25.3507 2.78226 23.8386 2.78226 21.9636V9.56441C2.78226 7.74989 3.32661 6.2378 4.41532 5.14909C5.44355 4.12086 7.01613 3.57651 8.83065 3.57651H21.2903C23.1048 3.57651 24.6169 4.12086 25.7056 5.20957C26.7339 6.29828 27.3387 7.81038 27.3387 9.56441V22.0241Z" fill="#FF993A"/>
</svg>
