<svg width="25" height="26" viewBox="0 0 25 26" fill="none" xmlns="http://www.w3.org/2000/svg">
<path d="M12.5 6.07007C8.97179 6.07007 6.0484 8.9776 6.0484 12.5993C6.0484 16.2209 8.92139 19.1285 12.5 19.1285C16.0786 19.1285 18.9516 16.1699 18.9516 12.5993C18.9516 9.02861 16.0282 6.07007 12.5 6.07007ZM12.5 16.782C10.2319 16.782 8.36695 14.8947 8.36695 12.5993C8.36695 10.3038 10.2319 8.4165 12.5 8.4165C14.7682 8.4165 16.6331 10.3038 16.6331 12.5993C16.6331 14.8947 14.7682 16.782 12.5 16.782Z" fill="white"/>
<path d="M19.2036 7.39629C20.0108 7.39629 20.6653 6.734 20.6653 5.91702C20.6653 5.10004 20.0108 4.43774 19.2036 4.43774C18.3963 4.43774 17.7419 5.10004 17.7419 5.91702C17.7419 6.734 18.3963 7.39629 19.2036 7.39629Z" fill="white"/>
<path d="M22.9839 2.09139C21.6734 0.714132 19.8085 0 17.6915 0H7.30847C2.92339 0 0 2.95855 0 7.39637V17.8533C0 20.0467 0.705645 21.9341 2.11694 23.3113C3.47782 24.6376 5.29234 25.3007 7.35887 25.3007H17.6411C19.8085 25.3007 21.623 24.5865 22.9335 23.3113C24.2944 21.9851 25 20.0977 25 17.9043V7.39637C25 5.25397 24.2944 3.41763 22.9839 2.09139ZM22.7823 17.9043C22.7823 19.4856 22.2278 20.7608 21.3206 21.628C20.4133 22.4952 19.1532 22.9542 17.6411 22.9542H7.35887C5.84677 22.9542 4.58669 22.4952 3.67944 21.628C2.77218 20.7098 2.31855 19.4346 2.31855 17.8533V7.39637C2.31855 5.86608 2.77218 4.59085 3.67944 3.67268C4.53629 2.80552 5.84677 2.34643 7.35887 2.34643H17.7419C19.254 2.34643 20.5141 2.80552 21.4214 3.72369C22.2782 4.64186 22.7823 5.91709 22.7823 7.39637V17.9043Z" fill="white"/>
</svg>
