<svg width="22" height="30" viewBox="0 0 22 30" fill="none" xmlns="http://www.w3.org/2000/svg">
<path d="M10.9963 0.933838C5.31201 0.933838 0.685671 5.87105 0.685669 11.9349C0.685665 22.6047 10.4159 30.716 10.4159 30.716C10.7577 31.0064 11.2423 31.0064 11.5841 30.716C11.5841 30.716 21.3162 22.6047 21.3162 11.9349C21.3161 5.87105 16.6807 0.933838 10.9963 0.933838ZM10.9963 6.93637C13.5741 6.93637 15.6893 9.18507 15.6893 11.9349C15.6893 14.6848 13.5741 16.9393 10.9963 16.9393C8.4186 16.9393 6.31065 14.6848 6.31067 11.9349C6.31068 9.18507 8.41861 6.93637 10.9963 6.93637Z" fill="#FFB800"/>
</svg>
