<svg width="30" height="30" viewBox="0 0 30 30" fill="none" xmlns="http://www.w3.org/2000/svg">
<path d="M29.3733 4.68457C29.0283 2.84054 28.0119 1.3885 26.721 0.895647C24.3813 -2.39483e-07 15 0 15 0C15 0 5.61874 -2.39483e-07 3.27897 0.895647C1.98838 1.3885 0.971721 2.84054 0.626779 4.68457C0 8.02676 0 15.0002 0 15.0002C0 15.0002 0 21.9736 0.626779 25.3154C0.971721 27.1595 1.98838 28.6119 3.27897 29.1047C5.61874 30 15 30 15 30C15 30 24.3813 30 26.721 29.1047C28.0119 28.6119 29.0283 27.1595 29.3733 25.3154C30 21.9736 30 15.0002 30 15.0002C30 15.0002 30 8.02676 29.3733 4.68457ZM11.9998 21.4289V8.57151L19.7939 15.0002L11.9998 21.4289Z" fill="#FF993A"/>
</svg>
