<svg width="25" height="26" viewBox="0 0 25 26" fill="none" xmlns="http://www.w3.org/2000/svg">
<path d="M24.4777 4.19514C24.1903 2.63997 23.3432 1.41539 22.2675 0.999734C20.3177 0.244385 12.5 0.244385 12.5 0.244385C12.5 0.244385 4.68228 0.244385 2.73248 0.999734C1.65699 1.41539 0.809767 2.63997 0.522315 4.19514C0 7.0138 0 12.8949 0 12.8949C0 12.8949 0 18.7759 0.522315 21.5943C0.809767 23.1495 1.65699 24.3744 2.73248 24.79C4.68228 25.5451 12.5 25.5451 12.5 25.5451C12.5 25.5451 20.3177 25.5451 22.2675 24.79C23.3432 24.3744 24.1903 23.1495 24.4777 21.5943C25 18.7759 25 12.8949 25 12.8949C25 12.8949 25 7.0138 24.4777 4.19514ZM9.99987 18.3166V7.47322L16.495 12.8949L9.99987 18.3166Z" fill="white"/>
</svg>
